<svg xmlns="http://www.w3.org/2000/svg" xmlns:xlink="http://www.w3.org/1999/xlink" width="305" height="436"><defs><linearGradient id="a" x1="50%" x2="50%" y1="0%" y2="100%"><stop offset="0%" stop-color="#E4E8EE"/><stop offset="52.446%" stop-color="#E1E6EC"/><stop offset="56.29%" stop-color="#E5EBEF"/><stop offset="60.134%" stop-color="#E3E7ED" stop-opacity=".256"/><stop offset="66.936%" stop-color="#DFE2EB" stop-opacity="0"/><stop offset="100%" stop-color="#D8D8D8" stop-opacity="0"/></linearGradient><linearGradient id="b" x1="57.572%" x2="62.674%" y1="50%" y2="100%"><stop offset="0%" stop-color="#E2E6ED"/><stop offset="100%" stop-color="#D5DBE6"/></linearGradient><linearGradient id="e" x1="12.83%" x2="91.066%" y1="65.493%" y2="38.431%"><stop offset="0%" stop-color="#B7C5DB"/><stop offset="100%" stop-color="#D8D8D8" stop-opacity="0"/></linearGradient><linearGradient id="g" x1="81.184%" x2="15.118%" y1="66.191%" y2="35.465%"><stop offset="0%" stop-color="#B7C6DB"/><stop offset="100%" stop-color="#D8D8D8" stop-opacity="0"/></linearGradient><linearGradient id="h" x1="0%" x2="100%" y1="68.105%" y2="26.451%"><stop offset="0%" stop-color="#E0E3EC"/><stop offset="26.719%" stop-color="#E0E3EE"/><stop offset="36.788%" stop-color="#E0E3EE"/><stop offset="50.256%" stop-color="#E9EBF2" stop-opacity=".281"/><stop offset="100%" stop-color="#ECEDF2" stop-opacity=".651"/></linearGradient><linearGradient id="i" x1="0%" x2="100%" y1="68.327%" y2="26.162%"><stop offset="0%" stop-color="#E0E3EC"/><stop offset="26.719%" stop-color="#E0E3EE"/><stop offset="36.788%" stop-color="#E0E3EE"/><stop offset="50.256%" stop-color="#E9EBF2" stop-opacity=".366"/><stop offset="100%" stop-color="#ECEDF2" stop-opacity=".528"/></linearGradient><linearGradient id="j" x1="0%" x2="100%" y1="67.7%" y2="26.977%"><stop offset="0%" stop-color="#E0E3EC"/><stop offset="26.719%" stop-color="#E0E3EE"/><stop offset="36.788%" stop-color="#E0E3EE"/><stop offset="50.256%" stop-color="#E9EBF2" stop-opacity=".337"/><stop offset="100%" stop-color="#ECEDF2" stop-opacity=".824"/></linearGradient><linearGradient id="k" x1="0%" x2="100%" y1="33.354%" y2="59.691%"><stop offset="0%" stop-color="#C0CBDD"/><stop offset="39.534%" stop-color="#D4DCE6"/><stop offset="100%" stop-color="#E4E9EE"/></linearGradient><linearGradient id="l" x1="50%" x2="50%" y1="0%" y2="100%"><stop offset="0%" stop-color="#FA7090"/><stop offset="100%" stop-color="#B53371"/></linearGradient><linearGradient id="m" x1="81.043%" x2="11.515%" y1="41.73%" y2="60.048%"><stop offset="0%" stop-color="#E1E4ED" stop-opacity=".903"/><stop offset="45.518%" stop-color="#DCE0EB"/><stop offset="100%" stop-color="#B7C5DB"/></linearGradient><linearGradient id="n" x1="0%" x2="85.178%" y1="0%" y2="87.887%"><stop offset="0%" stop-color="#F0F2F7" stop-opacity="0"/><stop offset="100%" stop-color="#B7C5DB"/></linearGradient><filter id="d" width="121.3%" height="131.5%" x="-10.6%" y="-15.7%" filterUnits="objectBoundingBox"><feGaussianBlur in="SourceAlpha" result="shadowBlurInner1" stdDeviation="13.5"/><feOffset dx="32" dy="5" in="shadowBlurInner1" result="shadowOffsetInner1"/><feComposite in="shadowOffsetInner1" in2="SourceAlpha" k2="-1" k3="1" operator="arithmetic" result="shadowInnerInner1"/><feColorMatrix in="shadowInnerInner1" values="0 0 0 0 0.717647059 0 0 0 0 0.77254902 0 0 0 0 0.854901961 0 0 0 0.345225087 0"/></filter><path id="c" d="M138.527 0c76.506 0 138.527 62.02 138.527 138.527 0 17.199-3.135 33.665-8.863 48.86L8.473 186.341C2.993 171.438 0 155.331 0 138.527c0-28.449 8.575-54.894 23.282-76.893l-6.01-6.76a4.7 4.7 0 0 1-.653-.545c-4.044-4.045.054-14.701 9.155-23.802 8.995-8.994 19.139-12.481 23.279-8.656l.143.138 6.368 5.571C78.69 10.26 107.41 0 138.527 0"/></defs><g fill="none" fill-rule="evenodd"><path fill="url(#a)" d="M139.821 157.784c45.752 0 86.322 22.18 111.548 56.372l11.193-3.22q.123-.04.25-.071c5.18-1.295 11.766 5.377 16.111 16.698 4.294 11.185 4.453 21.262-.397 23.363l-.178.073-6.642 2.809c4.313 13.393 6.642 27.676 6.642 42.503 0 17.199-3.134 33.666-8.863 48.86a138 138 0 0 1-4.34 10.24c-22.178 46.946-69.958 79.427-125.324 79.427L9.768 344.126c-5.481-14.904-8.473-31.01-8.473-47.815 0-28.448 8.575-54.894 23.282-76.892l-6.01-6.76a4.7 4.7 0 0 1-.653-.546c-4.045-4.044.054-14.7 9.155-23.801 8.994-8.995 19.139-12.482 23.278-8.657l.144.138 6.368 5.571c23.126-17.32 51.846-27.58 82.962-27.58" opacity=".833"/><path fill="url(#b)" d="M262.813 210.865c5.178-1.295 11.765 5.377 16.11 16.698 4.346 11.32 4.456 21.504-.575 23.436l-6.473 3.884q-2.589-10.358-7.768-22.01-5.178-11.651-12.946-18.124l11.156-3.72q.231-.098.495-.164z"/><use xlink:href="#c" fill="#000" filter="url(#d)" opacity=".986" transform="translate(1.295 157.784)"/><g opacity=".544" transform="rotate(10 -854.772 883.335)"><ellipse cx="38.839" cy="28.482" fill="#DCE0EB" rx="34.955" ry="22.009"/><ellipse cx="38.839" cy="28.482" fill="url(#e)" rx="34.955" ry="22.009"/></g><g opacity=".544" transform="rotate(110 -45.823 155.755)"><ellipse cx="24.598" cy="29.777" fill="#D5DBE7" rx="24.598" ry="16.83"/><ellipse cx="24.598" cy="29.777" fill="url(#g)" rx="24.598" ry="16.83"/></g><ellipse cx="32.104" cy="195.178" fill="#C8D1DF" rx="18.125" ry="5.179" transform="rotate(134 32.104 195.178)"/><path fill="url(#h)" d="m84.152 28.32 1.294 3.884-56.99 40.251c-.921.744-2.024 1.178-3.21 1.178-3.218 0-5.826-3.188-5.826-7.121s1.294-5.826 3.884-7.12z"/><path fill="url(#i)" d="m297.996 120.24 1.067 3.218-46.937 33.353c-.758.615-1.665.973-2.64.973-2.65 0-4.798-2.641-4.798-5.9 0-3.258 1.066-4.827 3.198-5.9l.004-.001z"/><path fill="url(#j)" d="M4.813 165.024a2.8 2.8 0 0 1-1.614.528c-1.767 0-3.199-1.73-3.199-3.865s.71-3.163 2.132-3.866l33.407-16.867.711 2.108-31.29 21.851z"/><path fill="url(#k)" fill-rule="nonzero" d="M210.102 83.704a13.65 13.65 0 0 1 10.487-.475 13.65 13.65 0 0 1 7.718 7.116 13.72 13.72 0 0 1 .46 10.499 13.72 13.72 0 0 1-7.101 7.747 13.68 13.68 0 0 1-13.806-1.037 13.72 13.72 0 0 1-5.841-12.57 13.77 13.77 0 0 1 8.083-11.28m55.37-10.303a13.37 13.37 0 0 1-6.532 17.944c-6.828 3.126-14.973.161-18.194-6.622-6.454-13.55-22.729-19.474-36.383-13.243a13.72 13.72 0 0 1-10.438.403c-5.201-1.894-8.765-6.691-9.03-12.155-.266-5.464 2.82-10.52 7.817-12.809 27.254-12.484 59.9-.602 72.76 26.482m37.406-17.962a13.77 13.77 0 0 1-2.323 15.091 13.705 13.705 0 0 1-14.8 3.646 13.62 13.62 0 0 1-7.728-7.097c-15.944-34.312-56.796-49.174-91.069-33.147-6.866 3.213-15.022.245-18.216-6.63s-.218-15.052 6.648-18.265c47.977-22.446 105.17-1.63 127.488 46.402"/><path fill="url(#l)" d="m151.343 63.245 28.334 47.079a7.768 7.768 0 0 1-6.655 11.773h-56.67a7.768 7.768 0 0 1-6.655-11.773l28.335-47.079a7.768 7.768 0 0 1 13.31 0z" transform="rotate(13 144.687 87.142)"/><path fill="url(#m)" d="m119.107 178.499 23.304-16.83 14.24 3.883-29.776 12.947z"/><path fill="#B53371" d="m138.545 110.11.007.002a3.884 3.884 0 0 1 2.913 4.65l-14.59 63.737h-7.768l14.798-65.474a3.866 3.866 0 0 1 4.64-2.915"/><g opacity=".544" transform="rotate(110 33.076 195.886)"><circle cx="12.594" cy="12.594" r="9.71" fill="#DBDEE7"/><circle cx="12.594" cy="12.594" r="9.71" fill="url(#n)"/></g><text fill="#FFF" font-family="QingYuan" font-size="40.134" transform="rotate(11 144.34 96.787)">
                    <tspan x="131.341" y="110.787">X</tspan>
                </text></g></svg>